<?xml version="1.0" encoding="UTF-8"?>
<!DOCTYPE svg PUBLIC "-//W3C//DTD SVG 1.1//EN" "http://www.w3.org/Graphics/SVG/1.1/DTD/svg11.dtd">
<svg xmlns="http://www.w3.org/2000/svg" version="1.1" width="99px" height="38px" style="shape-rendering:geometricPrecision; text-rendering:geometricPrecision; image-rendering:optimizeQuality; fill-rule:evenodd; clip-rule:evenodd" xmlns:xlink="http://www.w3.org/1999/xlink">
<g><path style="opacity:0.901" fill="#ff282a" d="M 9.5,6.5 C 35.5021,6.33336 61.5021,6.50003 87.5,7C 94.3776,9.93504 96.8776,15.1017 95,22.5C 93.5136,26.4979 90.6803,28.9979 86.5,30C 61.5,30.6667 36.5,30.6667 11.5,30C 2.93825,26.9923 0.104916,21.1589 3,12.5C 4.91403,10.1435 7.0807,8.14354 9.5,6.5 Z"/></g>
<g><path style="opacity:1" fill="#fff0f0" d="M 10.5,9.5 C 35.5022,9.33336 60.5022,9.50003 85.5,10C 92.1596,12.4902 93.993,16.9902 91,23.5C 90.0975,24.7014 88.9308,25.5348 87.5,26C 61.5,26.6667 35.5,26.6667 9.5,26C 4.00137,20.1534 4.33471,14.6534 10.5,9.5 Z"/></g>
<g><path style="opacity:1" fill="#ff292b" d="M 19.5,13.5 C 20.5,13.5 21.5,13.5 22.5,13.5C 22.5,16.8333 22.5,20.1667 22.5,23.5C 19.3095,23.3129 17.3095,21.6462 16.5,18.5C 16.2172,17.7109 15.7172,17.0442 15,16.5C 14.5034,18.8098 14.3367,21.1432 14.5,23.5C 13.5,23.5 12.5,23.5 11.5,23.5C 11.5,19.8333 11.5,16.1667 11.5,12.5C 12.9778,12.238 14.3112,12.5713 15.5,13.5C 16.4672,15.6297 17.6338,17.6297 19,19.5C 19.4955,17.5273 19.6621,15.5273 19.5,13.5 Z"/></g>
<g><path style="opacity:1" fill="#ff9ca0" d="M 19.5,13.5 C 20.5676,12.5655 21.901,12.2322 23.5,12.5C 23.815,16.3714 23.4816,20.0381 22.5,23.5C 22.5,20.1667 22.5,16.8333 22.5,13.5C 21.5,13.5 20.5,13.5 19.5,13.5 Z"/></g>
<g><path style="opacity:1" fill="#ffa6a9" d="M 86.5,11.5 C 90.0164,13.1183 90.1831,14.785 87,16.5C 83.9281,15.119 83.7614,13.4523 86.5,11.5 Z"/></g>
<g><path style="opacity:1" fill="#ff7779" d="M 24.5,12.5 C 25.8333,12.5 27.1667,12.5 28.5,12.5C 28.5,13.5 28.5,14.5 28.5,15.5C 27.1667,15.5 25.8333,15.5 24.5,15.5C 24.5,14.5 24.5,13.5 24.5,12.5 Z"/></g>
<g><path style="opacity:1" fill="#ff292c" d="M 41.5,14.5 C 43.1033,14.3118 44.4366,14.8118 45.5,16C 44.565,18.3806 44.2317,20.8806 44.5,23.5C 43.5,23.5 42.5,23.5 41.5,23.5C 41.9577,20.6062 41.291,18.1062 39.5,16C 40.4158,15.7216 41.0825,15.2216 41.5,14.5 Z"/></g>
<g><path style="opacity:1" fill="#ff2529" d="M 56.5,16.5 C 59.1873,16.3359 61.854,16.5026 64.5,17C 65.4231,19.0408 65.7564,21.2075 65.5,23.5C 64.5,23.5 63.5,23.5 62.5,23.5C 62.9492,21.0225 62.2825,19.0225 60.5,17.5C 59.5344,19.396 59.2011,21.396 59.5,23.5C 58.5,23.5 57.5,23.5 56.5,23.5C 56.5,21.1667 56.5,18.8333 56.5,16.5 Z"/></g>
<g><path style="opacity:1" fill="#ff2d2f" d="M 72.5,12.5 C 73.5,12.5 74.5,12.5 75.5,12.5C 75.5,16.1667 75.5,19.8333 75.5,23.5C 72.2893,23.988 69.456,23.3213 67,21.5C 66.6577,17.6803 68.491,16.0136 72.5,16.5C 72.5,15.1667 72.5,13.8333 72.5,12.5 Z"/></g>
<g><path style="opacity:1" fill="#ffa0a4" d="M 16.5,18.5 C 15.8333,20.1667 15.1667,21.8333 14.5,23.5C 14.3367,21.1432 14.5034,18.8098 15,16.5C 15.7172,17.0442 16.2172,17.7109 16.5,18.5 Z"/></g>
<g><path style="opacity:1" fill="#ff292e" d="M 24.5,16.5 C 25.5,16.5 26.5,16.5 27.5,16.5C 27.5,18.8333 27.5,21.1667 27.5,23.5C 26.5,23.5 25.5,23.5 24.5,23.5C 24.5,21.1667 24.5,18.8333 24.5,16.5 Z"/></g>
<g><path style="opacity:1" fill="#ff2c2f" d="M 29.5,16.5 C 32.1873,16.3359 34.854,16.5026 37.5,17C 39.229,18.7889 39.8957,20.9556 39.5,23.5C 38.5,23.5 37.5,23.5 36.5,23.5C 36.9492,21.0225 36.2825,19.0225 34.5,17.5C 32.7175,19.0225 32.0508,21.0225 32.5,23.5C 31.5,23.5 30.5,23.5 29.5,23.5C 29.5,21.1667 29.5,18.8333 29.5,16.5 Z"/></g>
<g><path style="opacity:1" fill="#ff3e3c" d="M 54.5,18.5 C 54.2648,19.0967 53.7648,19.4301 53,19.5C 51.6998,18.2927 50.1998,17.6261 48.5,17.5C 48.2155,19.4147 48.5489,21.0813 49.5,22.5C 51.1368,21.7822 52.8034,21.6155 54.5,22C 50.6419,25.6203 47.6419,24.9536 45.5,20C 47.1581,16.7035 49.8248,15.7035 53.5,17C 54.056,17.3826 54.3893,17.8826 54.5,18.5 Z"/></g>
<g><path style="opacity:1" fill="#ff4543" d="M 78.5,16.5 C 80.0358,18.0251 81.0358,20.0251 81.5,22.5C 82.1667,20.5 82.8333,18.5 83.5,16.5C 87.4379,18.899 87.4379,21.399 83.5,24C 77.4383,24.1347 75.7716,21.6347 78.5,16.5 Z"/></g>
<g><path style="opacity:1" fill="#ffeeef" d="M 70.5,17.5 C 71.6491,17.7911 72.3158,18.6244 72.5,20C 72.1667,20.8333 71.8333,21.6667 71.5,22.5C 70.5481,20.9547 70.2148,19.288 70.5,17.5 Z"/></g>
<g><path style="opacity:1" fill="#ff8789" d="M 56.5,16.5 C 56.5,18.8333 56.5,21.1667 56.5,23.5C 55.596,22.791 55.2627,21.791 55.5,20.5C 52.9179,20.0254 50.9179,20.6921 49.5,22.5C 48.5489,21.0813 48.2155,19.4147 48.5,17.5C 50.1998,17.6261 51.6998,18.2927 53,19.5C 53.7648,19.4301 54.2648,19.0967 54.5,18.5C 55.1667,17.8333 55.8333,17.1667 56.5,16.5 Z"/></g>
</svg>
